<svg xmlns="http://www.w3.org/2000/svg" width="512pt" height="512pt" viewBox="0 0 512 512">
  <g fill="#013574" stroke="none">
    <path d="M2482 4162c-96-35-122-78-122-207c0-116 27-153 191-267c23-16 20-17-85-17l-109-1l6-78c7-92 19-127 54-164c41-43 110-61 217-56c77 3 99 8 138 31c62 36 78 73 78 179c0 149-17 179-165 281l-90 63l-3 47c-2 28 1 47 7 47c6 0 11-22 11-50l0-50l116 0l117 0l-6 71c-8 89-29 127-90 158c-66 33-191 39-265 13zM2615 3617c9-44 3-102-10-102c-5 0-11 30-13 68c-3 71 12 93 23 34zM790 4144c-32-34-100-73-153-89c-41-12-42-14-45-57l-3-45l53-7c29-4 58-12 65-18c10-8 13-74 13-279l0-269l120 0l120 0l-2 393l-3 392c-65 3-73 1-95-24zM1180 4144c-32-34-100-73-153-89c-41-12-42-14-45-57l-3-45l53-7c29-4 58-12 65-18c10-8 13-74 13-279l0-269l120 0l120 0l-2 393l-3 392c-65 3-73 1-95-24zM3430 3775l0-395l120 0l120 0l-2 393l-3 392l-117 3l-118 3l0-396zM3710 4115l0-55l121 0l120 0l-3 53l-3 52l-117 3l-118 3l0-56zM4230 4094c0-69-2-75-17-69c-41 17-104 17-147 1c-77-29-81-42-84-275c-5-256 1-302 38-344c27-31 31-32 102-31c40 0 133 1 206 2l132 1l0 396l0 395l-115 0l-115 0l0-76zM1407 4113c-4-3-7-26-7-50c0-32-4-43-15-43c-12 0-15-13-15-55c0-40 4-55 14-55c11 0 14-44 18-228c3-148 9-235 17-249c21-41 61-53 176-53l106 0l-3 53c-3 48-5 52-30 55l-28 3l0 210l0 209l25 0c17 0 25 6 26 18c1 9 25-100 55-243c29-143 51-266 49-272c-2-7-18-13-35-13c-30 0-30 0-30-55l0-55l123 0c148 0 193 16 221 75c12 25 29 129 51 309c19 149 36 290 39 314l6 42l-109 0l-108 0l-6-82c-4-46-7-103-8-128c-1-62-8-39-27 92l-17 113l-128 0l-127 0l0 47l0 48l-113 0c-63 0-117-3-120-7zM3031 4026c-53-18-106-67-123-115c-8-24-13-98-13-216c0-172 1-182 25-230c36-72 71-89 196-93c221-9 271 64 262 382c-5 176-22 213-117 261c-46 23-173 29-230 11zM580 2324l0-785l388 4c419 4 437 6 498 59c78 68 99 166 91 418c-3 98-10 181-18 205c-18 54-94 128-150 147l-44 15l51 22c102 44 128 99 127 266c0 215-50 323-176 384c-87 42-173 51-493 51l-274 0l0-786zM5954 2324l0-785l365 0l365 0l0 160l0 160l-140 0l-140 0l0 170l0 170l120 0l120 0l0 155l0 155l-120 0l-120 0l0 140l0 140l125 0l125 0l0 160l0 160l-350 0l-350 0l0-785z"/>
  </g>
</svg>
