<svg xmlns="http://www.w3.org/2000/svg" viewBox="0 0 512 512">
  <path fill="#013574" d="M248.2 95.8c-9.6 3.5-12.2 7.8-12.2 20.7 0 11.6 2.7 15.3 19.1 26.7 2.3 1.6 2 1.7-8.5 1.7l-10.9.1.6 7.8c.7 9.2 1.9 12.7 5.4 16.4 4.1 4.3 11 6.1 21.7 5.6 7.7-.3 9.9-.8 13.8-3.1 6.2-3.6 7.8-7.3 7.8-17.9 0-14.9-1.7-17.9-16.5-28.1l-9-6.3-.3-4.7c-.2-2.8.1-4.7.7-4.7s1.1 2.2 1.1 5v5h23.3l-.6-7.1c-.8-8.9-2.9-12.7-9-15.8-6.6-3.3-19.1-3.9-26.5-1.3zm13.3 54.5c.9 4.4.3 10.2-1 10.2-.5 0-1.1-3-1.3-6.8-.3-7.1 1.2-9.3 2.3-3.4zM79 97.6c-3.2 3.4-10 7.3-15.3 8.9-4.1 1.2-4.2 1.4-4.5 5.7l-.3 4.5 5.3.7c2.9.4 5.8 1.2 6.5 1.8 1 .8 1.3 7.4 1.3 27.9V174h24l-.2-39.3-.3-39.2-7-.3c-6.5-.3-7.3-.1-9.5 2.4zm39 0c-3.2 3.4-10 7.3-15.3 8.9-4.1 1.2-4.2 1.4-4.5 5.7l-.3 4.5 5.3.7c2.9.4 5.8 1.2 6.5 1.8 1 .8 1.3 7.4 1.3 27.9V174h24l-.2-39.3-.3-39.2-7-.3c-6.5-.3-7.3-.1-9.5 2.4zm225 36.9V174h24l-.2-39.3-.3-39.2-11.7-.3-11.8-.3v39.6zm28-34v5.5h24.1l-.3-5.3-.3-5.2-11.7-.3-11.8-.3v5.6zm52 2.1c0 6.9-.2 7.5-1.7 6.9-4.1-1.7-10.4-1.7-14.7-.1-7.7 2.9-8.1 4.2-8.4 27.5-.5 25.6.1 30.2 3.8 34.4 2.7 3.1 3.1 3.2 10.2 3.1 4 0 13.3-.1 20.6-.2l13.2-.1V95h-23v7.6zm-.3 49.6c-.1 5.7-.3 1.1-.3-10.2 0-11.3.2-15.9.3-10.3.2 5.7.2 14.9 0 20.5zm-282-51.5c-.4.3-.7 2.6-.7 5 0 3.2-.4 4.3-1.5 4.3-1.2 0-1.5 1.3-1.5 5.5 0 4 .4 5.5 1.4 5.5 1.1 0 1.4 4.4 1.8 22.8.3 14.8.9 23.5 1.7 24.9 2.1 4.1 6.1 5.3 17.6 5.3h10.6l-.3-5.3c-.3-4.8-.5-5.2-3-5.5l-2.8-.3V121h2.5c1.7 0 2.5-.6 2.6-1.8.1-.9 2.5 10 5.5 24.3 2.9 14.3 5.1 26.6 4.9 27.2-.2.7-1.8 1.3-3.5 1.3-3 0-3 0-3 5.5v5.5h12.3c14.8 0 19.3-1.6 22.1-7.5 1.2-2.5 2.9-12.9 5.1-30.9 1.9-14.9 3.6-29 3.9-31.4l.6-4.2h-21.7l-.6 8.2c-.4 4.6-.7 10.3-.8 12.8-.1 6.2-.8 3.9-2.7-9.2l-1.7-11.3H164V100h-11.3c-6.3 0-11.7.3-12 .7zm162.4 8.7c-5.3 1.8-10.6 6.7-12.3 11.5-.8 2.4-1.3 9.8-1.3 21.6 0 17.2.1 18.2 2.5 23 3.6 7.2 7.1 8.9 19.6 9.3 22.1.9 27.1-6.4 26.2-38.2-.5-17.6-2.2-21.3-11.7-26.1-4.6-2.3-17.3-2.9-23-1.1zm10.6 42.3c-.1 5.9-.3 1.3-.3-10.2 0-11.6.2-16.4.3-10.8.2 5.6.2 15.1 0 21zm57.3-10.2V174h24l-.2-32.3-.3-32.2-11.7-.3-11.8-.3v32.6zm-72.5 58c-8.4 1.8-15.3 5.2-20 10-7.7 7.7-9.9 16.2-9.3 35.5.4 10.4.8 13.5 2.9 18.6 4.3 10.4 5 11 33.4 31.1 14.1 10 15 11.6 15 25 0 8.9-.3 10.5-2 12.2-4.4 4.5-6.4-1.5-6.5-19.7V301h-42.3l.6 14.7c.6 16.4 2.2 23.3 6.8 29.8 3.6 5 10.6 9.8 18.4 12.7 8.2 3 30.2 3.8 39.3 1.4 14.3-3.6 24.5-11.6 27.3-21.3 1-3.3 1.4-10.3 1.4-22.3 0-15.6-.2-18.2-2.3-24-1.2-3.6-3.6-8.3-5.4-10.4-4.4-5.3-16-14.4-27.6-21.5-5.4-3.3-11.1-7.4-12.7-9.1-2.8-2.9-3-3.8-3.3-11.3-.4-8.8.8-13.7 3.3-13.7 2.4 0 3.5 4.4 3.5 14.1v8.9h42.3l-.5-13.4c-.4-12.3-.7-13.9-3.4-19.2-4.6-9.3-14-15-28.6-17.4-8.5-1.3-23-1.1-30.3.5zM58 279.6v78.5l38.8-.4c41.9-.4 43.7-.6 49.8-5.9 7.8-6.8 9.9-16.6 9.1-41.8-.3-9.8-1-18.1-1.8-20.5-1.8-5.4-9.4-12.8-15-14.7l-4.4-1.5 5.1-2.2c10.2-4.4 12.8-9.9 12.7-26.6 0-21.5-5-32.3-17.6-38.4-8.7-4.2-17.3-5.1-49.3-5.1H58v78.6zm50.4-48.4c1.5 2.4 2.2 9.8 1.8 20.5-.2 6.5-2.3 10.3-5.7 10.3-1.3 0-1.5-2.5-1.5-16.5 0-15.8.1-16.5 2-16.5 1.1 0 2.6 1 3.4 2.2zm-.1 58.3c3.3 3.2 3.4 33.2.2 38.1-.7 1.2-2.3 2.4-3.4 2.7-2.1.5-2.1.2-2.1-20.9 0-20.5.1-21.4 1.9-21.4 1.1 0 2.6.7 3.4 1.5zm72.7-87.8c-.1.5-4.7 35.7-10.3 78.3l-10.3 77.5 23 .3c12.6.1 23.1 0 23.4-.3.3-.3 1-6.5 1.6-13.8l1.1-13.2 4.7-.3c5.5-.4 5.4-.7 6.4 16.5l.7 11.3h46.6l-.6-3.8c-.4-2-5.7-37.2-11.7-78.2l-11.1-74.5-31.8-.3c-17.4-.1-31.7.1-31.7.5zm35 79.9c1.1 10.4 2 19 2 19.1 0 .2-2 .3-4.5.3h-4.6l.5-3.3c.3-1.7 1.3-10.5 2.2-19.5 1-8.9 1.9-16 2.1-15.8.2.2 1.2 8.8 2.3 19.2zm160-2.1V358h73v-32h-28v-34h24v-31h-24v-28h25v-32h-70v78.5zM58 392v17h392v-34H58v17zm387 0v12H63v-24h382v12z"/>
</svg>
