<svg xmlns="http://www.w3.org/2000/svg" width="512pt" height="512pt" viewBox="0 0 512 512" preserveAspectRatio="xMidYMid meet">
  <g transform="translate(0,512) scale(0.1,-0.1)" fill="#013574" stroke="none">
    <path d="M2482 4162 c-96 -35 -122 -78 -122 -207 0 -116 27 -153 191 -267 23 -16 20 -17 -85 -17 l-109 -1 6 -78 c7 -92 19 -127 54 -164 41 -43 110 -61 217 -56 77 3 99 8 138 31 62 36 78 73 78 179 0 149 -17 179 -165 281 l-90 63 -3 47 c-2 28 1 47 7 47 6 0 11 -22 11 -50 l0 -50 116 0 117 0 -6 71 c-8 89 -29 127 -90 158 -66 33 -191 39 -265 13z m133 -545 c9 -44 3 -102 -10 -102 -5 0 -11 30 -13 68 -3 71 12 93 23 34z"/>
    <path d="M790 4144 c-32 -34 -100 -73 -153 -89 -41 -12 -42 -14 -45 -57 l-3 -45 53 -7 c29 -4 58 -12 65 -18 10 -8 13 -74 13 -279 l0 -269 120 0 120 0 -2 393 -3 392 -70 3 c-65 3 -73 1 -95 -24z"/>
    <path d="M1180 4144 c-32 -34 -100 -73 -153 -89 -41 -12 -42 -14 -45 -57 l-3 -45 53 -7 c29 -4 58 -12 65 -18 10 -8 13 -74 13 -279 l0 -269 120 0 120 0 -2 393 -3 392 -70 3 c-65 3 -73 1 -95 -24z"/>
    <path d="M3430 3775 l0 -395 120 0 120 0 -2 393 -3 392 -117 3 -118 3 0 -396z"/>
    <path d="M3710 4115 l0 -55 121 0 120 0 -3 53 -3 52 -117 3 -118 3 0 -56z"/>
    <path d="M4230 4094 c0 -69 -2 -75 -17 -69 -41 17 -104 17 -147 1 -77 -29 -81 -42 -84 -275 -5 -256 1 -302 38 -344 27 -31 31 -32 102 -31 40 0 133 1 206 2 l132 1 0 396 0 395 -115 0 -115 0 0 -76z m-3 -496 c-1 -57 -3 -11 -3 102 0 113 2 159 3 103 2 -57 2 -149 0 -205z"/>
    <path d="M1407 4113 c-4 -3 -7 -26 -7 -50 0 -32 -4 -43 -15 -43 -12 0 -15 -13 -15 -55 0 -40 4 -55 14 -55 11 0 14 -44 18 -228 3 -148 9 -235 17 -249 21 -41 61 -53 176 -53 l106 0 -3 53 c-3 48 -5 52 -30 55 l-28 3 0 210 0 209 25 0 c17 0 25 6 26 18 1 9 25 -100 55 -243 29 -143 51 -266 49 -272 -2 -7 -18 -13 -35 -13 -30 0 -30 0 -30 -55 l0 -55 123 0 c148 0 193 16 221 75 12 25 29 129 51 309 19 149 36 290 39 314 l6 42 -109 0 -108 0 -6 -82 c-4 -46 -7 -103 -8 -128 -1 -62 -8 -39 -27 92 l-17 113 -128 0 -127 0 0 47 0 48 -113 0 c-63 0 -117 -3 -120 -7z"/>
    <path d="M3031 4026 c-53 -18 -106 -67 -123 -115 -8 -24 -13 -98 -13 -216 0 -172 1 -182 25 -230 36 -72 71 -89 196 -93 221 -9 271 64 262 382 -5 176 -22 213 -117 261 -46 23 -173 29 -230 11z m106 -423 c-1 -59 -3 -13 -3 102 0 116 2 164 3 108 2 -56 2 -151 0 -210z"/>
    <path d="M3710 3705 l0 -325 120 0 120 0 -2 323 -3 322 -117 3 -118 3 0 -326z"/>
    <path d="M2985 3125 c-84 -18 -153 -52 -200 -100 -77 -77 -99 -162 -93 -355 4 -104 8 -135 29 -186 43 -104 50 -110 334 -311 141 -100 150 -116 150 -250 0 -89 -3 -105 -20 -122 -44 -45 -64 15 -65 197 l0 112 -211 0 -212 0 6 -147 c6 -164 22 -233 68 -298 36 -50 106 -98 184 -127 82 -30 302 -38 393 -14 143 36 245 116 273 213 10 33 14 103 14 223 0 156 -2 182 -23 240 -12 36 -36 83 -54 104 -44 53 -160 144 -276 215 -54 33 -111 74 -127 91 -28 29 -30 38 -33 113 -4 88 8 137 33 137 24 0 35 -44 35 -141 l0 -89 211 0 212 0 -5 134 c-4 123 -7 139 -34 192 -46 93 -140 150 -286 174 -85 13 -230 11 -303 -5z"/>
    <path d="M580 2324 l0 -785 388 4 c419 4 437 6 498 59 78 68 99 166 91 418 -3 98 -10 181 -18 205 -18 54 -94 128 -150 147 l-44 15 51 22 c102 44 128 99 127 266 0 215 -50 323 -176 384 -87 42 -173 51 -493 51 l-274 0 0 -786z m504 484 c15 -24 22 -98 18 -205 -2 -65 -23 -103 -57 -103 -13 0 -15 25 -15 165 0 158 1 165 20 165 11 0 26 -10 34 -22z m-1 -583 c33 -32 34 -332 2 -381 -7 -12 -23 -24 -34 -27 -21 -5 -21 -2 -21 209 0 205 1 214 19 214 11 0 26 -7 34 -15z"/>
    <path d="M1810 3103 c-1 -5 -47 -357 -103 -783 l-103 -775 230 -3 c126 -1 231 0 234 3 3 3 10 65 16 138 l11 132 47 3 c55 4 54 7 64 -165 l7 -113 233 0 233 0 -6 38 c-4 20 -57 372 -117 782 l-111 745 -318 3 c-174 1 -317 -1 -317 -5z m350 -799 c11 -104 20 -190 20 -191 0 -2 -20 -3 -45 -3 l-46 0 5 33 c3 17 13 105 22 195 10 89 19 160 21 158 2 -2 12 -88 23 -192z"/>
    <path d="M3760 2325 l0 -785 365 0 365 0 0 160 0 160 -140 0 -140 0 0 170 0 170 120 0 120 0 0 155 0 155 -120 0 -120 0 0 140 0 140 125 0 125 0 0 160 0 160 -350 0 -350 0 0 -785z"/>
    <path d="M580 1200 l0 -170 1960 0 1960 0 0 170 0 170 -1960 0 -1960 0 0 -170z m3870 0 l0 -120 -1910 0 -1910 0 0 120 0 120 1910 0 1910 0 0 -120z"/>
  </g>
</svg>
